<svg xmlns="http://www.w3.org/2000/svg" width="700" height="700" viewBox="0 0 700 700" version="1.1"><path d="" stroke="none" fill="#080404" fill-rule="evenodd"/><path d="M 88.039 234.174 C 86.136 235.468, 83.338 238.321, 81.822 240.513 C 79.066 244.500, 79.066 244.500, 79.033 289.296 C 79 334.091, 79 334.091, 81.502 341.820 C 82.878 346.070, 85.999 352.957, 88.439 357.125 C 90.894 361.319, 95.246 366.848, 98.187 369.511 C 101.237 372.271, 107.334 376.143, 112.500 378.599 C 117.450 380.953, 124.875 383.793, 129 384.909 C 133.125 386.026, 140.775 387.455, 146 388.084 C 151.413 388.737, 159.335 388.944, 164.414 388.566 C 169.317 388.202, 176.299 387.278, 179.930 386.515 C 183.561 385.751, 189.899 383.924, 194.016 382.455 C 198.132 380.987, 204.141 378.392, 207.368 376.690 C 210.596 374.988, 215.798 371.073, 218.929 367.990 C 222.593 364.383, 226.115 359.487, 228.808 354.255 C 231.110 349.783, 233.664 343.284, 234.482 339.812 C 235.680 334.730, 235.973 324.917, 235.985 289.462 C 236 245.750, 235.983 245.391, 233.750 241.020 C 232.512 238.599, 230.281 235.729, 228.791 234.644 C 227.201 233.486, 223.898 232.496, 220.791 232.247 C 216.444 231.898, 214.892 232.239, 212.092 234.161 C 210.218 235.447, 207.743 237.770, 206.592 239.321 C 204.565 242.055, 204.485 243.480, 204 285.345 C 203.500 328.548, 203.500 328.548, 200.195 335.259 C 197.562 340.605, 195.747 342.788, 191.262 345.998 C 188.075 348.281, 182.137 351.170, 177.567 352.661 C 170.896 354.838, 167.597 355.300, 158.500 355.334 C 150.984 355.362, 145.464 354.817, 141.071 353.614 C 137.536 352.645, 132.457 350.745, 129.785 349.391 C 127.114 348.038, 123.198 345.367, 121.084 343.457 C 118.969 341.546, 116.173 337.625, 114.870 334.742 C 112.521 329.547, 112.496 329.110, 112 285.821 C 111.518 243.673, 111.428 242.046, 109.438 239.383 C 108.304 237.865, 106.185 235.734, 104.730 234.648 C 103.156 233.472, 99.938 232.499, 96.791 232.247 C 92.443 231.898, 90.883 232.241, 88.039 234.174 M 150.024 234.185 C 148.112 235.484, 145.509 238.089, 144.240 239.972 C 141.932 243.396, 141.932 243.396, 142.216 281.119 C 142.500 318.841, 142.500 318.841, 145 321.549 C 146.375 323.039, 148.948 324.875, 150.718 325.629 C 152.488 326.383, 155.655 327, 157.756 327 C 159.857 327, 163.584 325.988, 166.038 324.750 C 168.942 323.286, 171.111 321.278, 172.248 319 C 173.813 315.868, 173.997 311.817, 173.998 280.462 C 174 246.096, 173.957 245.339, 171.750 241.020 C 170.512 238.599, 168.281 235.729, 166.791 234.644 C 165.201 233.486, 161.898 232.496, 158.791 232.247 C 154.438 231.897, 152.884 232.241, 150.024 234.185 M 282.001 233.123 C 280.626 233.672, 278.446 235.106, 277.155 236.310 C 275.865 237.515, 274.178 239.715, 273.405 241.200 C 272.632 242.686, 272 245.843, 272 248.216 C 272 250.589, 272.834 254.099, 273.854 256.016 C 274.874 257.932, 277.461 260.505, 279.604 261.734 C 283.491 263.962, 283.618 263.967, 333.016 263.984 C 379.269 263.999, 382.761 264.122, 386.016 265.852 C 387.932 266.870, 390.512 269.187, 391.750 270.999 C 393.282 273.244, 393.999 275.764, 393.996 278.898 C 393.994 281.694, 393.228 284.754, 392.044 286.696 C 390.972 288.453, 388.859 290.703, 387.347 291.696 C 384.967 293.258, 381.554 293.567, 361.870 294 C 340.807 294.463, 338.934 294.653, 336.321 296.592 C 334.769 297.743, 332.448 300.218, 331.161 302.092 C 329.231 304.905, 328.891 306.471, 329.212 311.065 C 329.465 314.689, 330.361 317.699, 331.781 319.692 C 332.980 321.376, 335.500 323.484, 337.381 324.377 C 340.246 325.736, 344.760 326, 365.151 326.002 C 386.337 326.003, 389.952 326.230, 392.980 327.752 C 394.894 328.713, 397.482 331.029, 398.730 332.898 C 400.287 335.228, 401 337.774, 401 341 C 401 344.226, 400.287 346.772, 398.730 349.102 C 397.482 350.971, 394.894 353.287, 392.980 354.248 C 389.952 355.770, 386.337 355.997, 365.151 355.998 C 344.718 356, 340.250 356.262, 337.367 357.630 C 335.313 358.605, 332.893 361.032, 331.348 363.668 C 329.150 367.419, 328.829 368.966, 329.196 374.039 C 329.550 378.927, 330.157 380.565, 332.564 383.124 C 334.179 384.841, 336.948 386.866, 338.718 387.623 C 341.162 388.669, 347.909 389, 366.784 389 C 380.451 389, 394.303 388.512, 397.566 387.916 C 400.830 387.320, 406.315 385.496, 409.757 383.862 C 413.222 382.217, 418.248 378.657, 421.021 375.883 C 423.776 373.129, 427.094 368.766, 428.395 366.188 C 429.696 363.609, 431.324 358.967, 432.012 355.872 C 432.728 352.655, 433.074 346.657, 432.822 341.872 C 432.493 335.633, 431.711 332.039, 429.752 327.765 C 428.307 324.610, 425.916 320.446, 424.440 318.510 C 422.964 316.575, 419.548 313.370, 416.849 311.389 L 411.942 307.787 416.056 303.323 C 418.319 300.868, 421.479 296.064, 423.078 292.647 C 424.706 289.169, 426.256 283.808, 426.599 280.467 C 426.937 277.185, 426.713 271.817, 426.101 268.537 C 425.490 265.257, 423.667 259.749, 422.051 256.296 C 420.417 252.804, 416.954 247.858, 414.246 245.150 C 411.519 242.424, 406.546 238.947, 402.939 237.246 C 399.397 235.576, 394.115 233.713, 391.201 233.105 C 387.710 232.377, 368.595 232.022, 335.201 232.063 C 304.008 232.102, 283.538 232.510, 282.001 233.123 M 522 235.985 C 517.325 236.999, 511.025 238.706, 508 239.778 C 504.975 240.850, 499.350 243.251, 495.500 245.114 C 490.816 247.380, 486.310 250.678, 481.880 255.086 C 477.022 259.918, 474.164 263.912, 471.146 270.086 C 468.672 275.147, 466.630 281.090, 466.024 285 C 465.469 288.575, 465.015 300.725, 465.015 312 C 465.015 323.275, 465.481 335.425, 466.050 339 C 466.690 343.022, 468.809 349.016, 471.608 354.723 C 474.956 361.550, 477.734 365.535, 482.300 370.058 C 486.599 374.317, 490.898 377.334, 496.484 380.012 C 500.893 382.126, 507.425 384.808, 511 385.974 C 514.575 387.139, 522 388.792, 527.500 389.645 C 534.491 390.731, 540.842 391.019, 548.607 390.603 C 555.207 390.249, 563.638 389.012, 569.384 387.554 C 574.703 386.205, 583.205 383.135, 588.277 380.731 C 594.412 377.825, 599.519 374.492, 603.528 370.778 C 607.676 366.937, 610.866 362.711, 613.756 357.230 C 616.066 352.850, 618.641 346.636, 619.478 343.423 C 620.653 338.914, 621 331.620, 621 311.471 C 621 290.367, 620.691 284.322, 619.388 279.932 C 618.501 276.944, 616.413 271.800, 614.748 268.500 C 612.932 264.899, 608.879 259.657, 604.611 255.389 C 600.318 251.097, 595.122 247.084, 591.500 245.264 C 588.200 243.606, 582.198 241.064, 578.162 239.615 C 574.126 238.165, 566.980 236.309, 562.281 235.490 C 557.582 234.670, 548.509 234.032, 542.119 234.070 C 534.822 234.115, 527.338 234.827, 522 235.985 M 528.375 267.491 C 525.006 268.224, 519.615 270.070, 516.396 271.592 C 513.177 273.115, 508.461 276.444, 505.916 278.989 C 502.863 282.042, 500.643 285.469, 499.394 289.058 C 497.807 293.619, 497.500 297.418, 497.500 312.522 C 497.500 330.545, 497.500 330.545, 500.843 337.333 C 503.148 342.015, 505.475 345.073, 508.343 347.188 C 510.629 348.874, 514.820 351.335, 517.656 352.657 C 520.491 353.979, 526.268 355.722, 530.494 356.530 C 534.719 357.339, 540.724 357.992, 543.838 357.983 C 546.952 357.973, 552.611 357.306, 556.412 356.501 C 560.214 355.695, 566.120 353.729, 569.536 352.130 C 572.952 350.531, 577.550 347.595, 579.754 345.603 C 581.958 343.612, 584.821 339.625, 586.118 336.742 C 588.251 331.997, 588.507 329.820, 588.818 313.783 C 589.088 299.828, 588.826 294.915, 587.586 290.647 C 586.545 287.066, 584.515 283.565, 581.604 280.326 C 579.180 277.631, 574.936 274.194, 572.173 272.691 C 569.410 271.187, 563.669 269.066, 559.415 267.978 C 554.439 266.706, 548.616 266.028, 543.090 266.079 C 538.366 266.123, 531.744 266.759, 528.375 267.491 M 281.500 295.417 C 279.850 296.154, 277.150 298.190, 275.500 299.943 C 272.500 303.129, 272.500 303.129, 272.214 339.770 C 272.010 365.874, 272.261 377.216, 273.087 379.210 C 273.725 380.750, 275.756 383.335, 277.602 384.955 C 279.447 386.576, 282.585 388.207, 284.575 388.580 C 286.565 388.953, 289.900 388.747, 291.987 388.122 C 294.151 387.474, 297.295 385.308, 299.307 383.082 C 302.068 380.026, 302.977 378.019, 303.492 373.839 C 303.854 370.903, 304.004 354.325, 303.825 337 C 303.507 306.199, 303.449 305.418, 301.212 301.821 C 299.869 299.661, 297.158 297.287, 294.647 296.071 C 292.294 294.932, 289.048 294.018, 287.434 294.039 C 285.820 294.061, 283.150 294.681, 281.500 295.417 M 535.500 296.403 C 533.850 297.131, 531.600 298.735, 530.500 299.967 C 528.888 301.773, 528.445 303.884, 528.215 310.854 C 528.028 316.527, 528.376 320.349, 529.229 321.970 C 529.944 323.328, 532.052 325.466, 533.912 326.720 C 536.493 328.459, 538.708 329, 543.247 329 C 546.683 329, 550.654 328.309, 552.643 327.365 C 554.538 326.466, 556.743 324.463, 557.544 322.915 C 558.480 321.104, 559 317.095, 559 311.685 C 559 304.567, 558.666 302.845, 556.832 300.514 C 555.640 298.998, 553.179 297.137, 551.364 296.379 C 549.549 295.620, 545.912 295.018, 543.282 295.039 C 540.652 295.061, 537.150 295.674, 535.500 296.403 M 447.381 420.910 C 445.665 421.956, 443.753 424.271, 443.131 426.055 C 442.509 427.839, 442 431.954, 442 435.199 C 442 438.478, 442.664 442.383, 443.494 443.989 C 444.316 445.578, 445.991 447.581, 447.217 448.439 C 448.442 449.298, 450.820 450, 452.500 450 C 454.180 450, 456.558 449.298, 457.783 448.439 C 459.009 447.581, 460.684 445.578, 461.506 443.989 C 462.403 442.254, 462.999 438.383, 462.996 434.300 C 462.993 429.269, 462.473 426.648, 460.996 424.225 C 459.898 422.424, 457.845 420.511, 456.434 419.975 C 455.024 419.439, 453.112 419.002, 452.185 419.004 C 451.258 419.006, 449.096 419.863, 447.381 420.910 M 79 432.142 C 79 444.283, 79 444.283, 81.991 447.142 C 84.249 449.300, 85.950 450, 88.935 450 C 91.671 450, 93.753 449.257, 95.694 447.589 C 98.453 445.219, 98.506 444.965, 98.832 432.589 C 99.153 420.396, 99.098 420, 97.082 420 C 95.102 420, 95 420.526, 95 430.777 C 95 438.914, 94.618 442.100, 93.443 443.777 C 92.478 445.156, 90.845 446, 89.143 446 C 87.634 446, 85.860 445.460, 85.200 444.800 C 84.402 444.002, 84 439.644, 84 431.800 C 84 420, 84 420, 81.500 420 C 79 420, 79 420, 79 432.142 M 120 422 C 120 423.333, 120.667 424, 122 424 C 123.333 424, 124 423.333, 124 422 C 124 420.667, 123.333 420, 122 420 C 120.667 420, 120 420.667, 120 422 M 194 422 C 194 423.333, 194.667 424, 196 424 C 197.333 424, 198 423.333, 198 422 C 198 420.667, 197.333 420, 196 420 C 194.667 420, 194 420.667, 194 422 M 219.500 423 C 218.052 425.800, 218.069 426, 219.759 426 C 220.754 426, 222.366 424.650, 223.341 423 C 225.072 420.070, 225.066 420, 223.082 420 C 221.837 420, 220.451 421.161, 219.500 423 M 254 424.276 C 254 428.553, 254 428.553, 250.144 428.185 C 246.905 427.876, 245.946 428.253, 244.144 430.544 C 242.501 432.633, 242 434.651, 242 439.180 C 242 444.073, 242.410 445.501, 244.381 447.471 C 246.367 449.457, 247.692 449.830, 252.381 449.720 L 258 449.589 258 434.794 C 258 420.667, 257.910 420, 256 420 C 254.312 420, 254 420.667, 254 424.276 M 291.223 434.737 C 291.477 448.252, 291.656 449.505, 293.382 449.836 C 294.417 450.035, 297.717 449.891, 300.714 449.517 C 304.022 449.103, 306.918 448.082, 308.082 446.918 C 309.276 445.724, 310 443.614, 310 441.329 C 310 439.310, 309.322 436.909, 308.494 435.994 C 307.153 434.511, 307.157 433.993, 308.532 431.237 C 309.464 429.367, 309.817 427.118, 309.423 425.549 C 309.065 424.121, 307.823 422.289, 306.663 421.477 C 305.306 420.526, 302.133 420, 297.751 420 L 290.947 420 291.223 434.737 M 504 422 C 504 423.333, 504.667 424, 506 424 C 507.333 424, 508 423.333, 508 422 C 508 420.667, 507.333 420, 506 420 C 504.667 420, 504 420.667, 504 422 M 523 424.276 C 523 428.553, 523 428.553, 519.144 428.185 C 515.905 427.876, 514.946 428.253, 513.144 430.544 C 511.501 432.633, 511 434.651, 511 439.180 C 511 444.073, 511.410 445.501, 513.381 447.471 C 515.367 449.457, 516.692 449.830, 521.381 449.720 L 527 449.589 527 434.794 C 527 420.667, 526.910 420, 525 420 C 523.312 420, 523 420.667, 523 424.276 M 598 435.073 C 598 448.890, 598.146 450.119, 599.750 449.811 C 601.307 449.512, 601.531 447.850, 601.777 434.737 C 602.044 420.511, 601.983 420, 600.027 420 C 598.081 420, 598 420.600, 598 435.073 M 203 424.500 C 203 427.333, 202.619 428, 201 428 C 199.837 428, 199 428.667, 199 429.594 C 199 430.470, 199.900 431.423, 201 431.710 C 202.797 432.180, 203 433.074, 203 440.510 C 203 447.134, 203.316 448.907, 204.582 449.393 C 205.452 449.727, 207.252 450, 208.582 450 C 210.374 450, 211 449.455, 211 447.893 C 211 446.336, 210.564 445.953, 209.330 446.427 C 208.409 446.780, 207.294 446.492, 206.845 445.784 C 206.397 445.078, 206.024 441.688, 206.015 438.250 C 206.001 432.246, 206.098 432, 208.500 432 C 210.333 432, 211 431.467, 211 430 C 211 428.533, 210.333 428, 208.500 428 C 206.310 428, 206 427.567, 206 424.500 C 206 422.056, 205.548 421, 204.500 421 C 203.452 421, 203 422.056, 203 424.500 M 345.667 421.667 C 345.300 422.033, 345 423.608, 345 425.167 C 345 427.019, 344.480 428, 343.500 428 C 342.675 428, 342 428.689, 342 429.531 C 342 430.374, 342.675 431.322, 343.500 431.638 C 344.615 432.066, 345 433.840, 345 438.542 C 345 442.022, 345.439 446.024, 345.975 447.435 C 346.768 449.519, 347.612 450, 350.475 450 C 353.326 450, 354 449.620, 354 448.012 C 354 446.546, 353.409 446.086, 351.750 446.262 C 349.625 446.487, 349.484 446.097, 349.206 439.250 C 348.915 432.073, 348.938 432, 351.456 432 C 353.333 432, 354 431.476, 354 430 C 354 428.533, 353.333 428, 351.500 428 C 349.310 428, 349 427.567, 349 424.500 C 349 422.250, 348.524 421, 347.667 421 C 346.933 421, 346.033 421.300, 345.667 421.667 M 569 424.500 C 569 426.944, 568.548 428, 567.500 428 C 566.667 428, 566 428.889, 566 430 C 566 431.111, 566.667 432, 567.500 432 C 568.706 432, 569 433.542, 569 439.878 C 569 445.513, 569.410 448.095, 570.440 448.950 C 571.231 449.607, 573.144 449.999, 574.690 449.822 C 576.377 449.629, 577.500 448.901, 577.500 448.001 C 577.500 447.170, 576.610 446.502, 575.500 446.501 C 573.713 446.500, 573.469 445.735, 573.208 439.325 C 572.930 432.515, 573.031 432.134, 575.197 431.825 C 576.453 431.646, 577.630 430.712, 577.813 429.750 C 578.061 428.450, 577.485 428, 575.573 428 C 573.299 428, 573 427.593, 573 424.500 C 573 421.667, 572.619 421, 571 421 C 569.381 421, 569 421.667, 569 424.500 M 295 427.500 C 295 432, 295 432, 298.929 432 C 301.167 432, 303.533 431.324, 304.429 430.429 C 305.293 429.564, 306 428.439, 306 427.929 C 306 427.418, 305.100 426.100, 304 425 C 302.762 423.762, 300.667 423, 298.500 423 C 295.019 423, 295 423.024, 295 427.500 M 449.400 423.765 C 448.795 424.169, 447.782 425.483, 447.150 426.684 C 446.517 427.886, 446 431.395, 446 434.484 C 446 437.572, 446.657 441.370, 447.460 442.923 C 448.263 444.475, 449.881 445.997, 451.056 446.304 C 452.231 446.612, 453.841 446.614, 454.633 446.310 C 455.426 446.006, 456.732 444.485, 457.537 442.928 C 458.342 441.372, 459 437.572, 459 434.484 C 459 431.395, 458.483 427.886, 457.850 426.684 C 457.218 425.483, 456.205 424.169, 455.600 423.765 C 454.995 423.361, 453.600 423.031, 452.500 423.031 C 451.400 423.031, 450.005 423.361, 449.400 423.765 M 217.256 428.535 C 215.578 429.240, 213.791 431.090, 213.043 432.896 C 212.287 434.721, 211.958 437.934, 212.256 440.579 C 212.574 443.403, 213.636 446.048, 215.058 447.562 C 216.532 449.130, 218.456 450, 220.452 450 C 222.159 450, 224.555 449.299, 225.777 448.443 C 227 447.587, 228 446.264, 228 445.502 C 228 444.741, 227.566 443.850, 227.036 443.523 C 226.507 443.195, 225.157 443.843, 224.036 444.964 C 222.916 446.084, 221.550 447, 221 447 C 220.450 447, 219.100 446.100, 218 445 C 216.900 443.900, 216 442.325, 216 441.500 C 216 440.333, 217.333 440, 222 440 C 228 440, 228 440, 228 436.223 C 228 434.145, 227.338 431.500, 226.529 430.345 C 225.720 429.189, 223.958 428.034, 222.613 427.777 C 221.269 427.520, 218.858 427.861, 217.256 428.535 M 388.722 427.611 C 388.364 427.970, 385.741 428.317, 382.895 428.382 C 378.477 428.483, 377.419 428.905, 375.649 431.271 C 373.843 433.687, 373.730 434.447, 374.767 437.195 C 375.629 439.479, 375.657 440.709, 374.867 441.660 C 374.267 442.383, 374.054 444.077, 374.392 445.426 C 374.730 446.774, 374.556 448.157, 374.004 448.498 C 373.452 448.839, 373 449.922, 373 450.904 C 373 451.886, 373.919 453.521, 375.041 454.537 C 376.423 455.788, 378.604 456.381, 381.791 456.374 C 384.381 456.369, 387.512 455.816, 388.750 455.147 C 390.298 454.310, 391 453.011, 391 450.988 C 391 449.027, 390.250 447.570, 388.750 446.619 C 387.512 445.834, 384.586 444.884, 382.246 444.507 C 379.906 444.131, 378.256 443.394, 378.580 442.871 C 378.904 442.347, 379.979 442.176, 380.969 442.490 C 381.960 442.805, 383.916 442.540, 385.318 441.901 C 386.719 441.263, 388.386 439.482, 389.023 437.944 C 389.660 436.406, 389.885 434.214, 389.523 433.074 C 389.040 431.551, 389.301 431, 390.506 431 C 391.500 431, 392.019 430.343, 391.823 429.333 C 391.645 428.416, 391.022 427.507, 390.438 427.312 C 389.853 427.117, 389.081 427.252, 388.722 427.611 M 472.354 427.761 C 471.174 427.954, 469.434 428.968, 468.486 430.015 C 467.539 431.062, 466.536 433.935, 466.258 436.400 C 465.981 438.864, 466.045 442.044, 466.402 443.466 C 466.759 444.888, 467.939 446.939, 469.025 448.025 C 470.200 449.200, 472.348 450, 474.326 450 C 476.509 450, 478.398 449.205, 479.826 447.686 C 481.022 446.413, 482 444.838, 482 444.186 C 482 443.533, 481.100 443, 480 443 C 478.900 443, 478 443.434, 478 443.965 C 478 444.495, 477.063 445.431, 475.917 446.045 C 474.255 446.934, 473.446 446.809, 471.917 445.425 C 470.580 444.215, 470 442.356, 470 439.279 C 470 436.853, 470.466 433.998, 471.035 432.934 C 471.605 431.870, 472.929 431, 473.978 431 C 475.028 431, 476.551 431.949, 477.363 433.108 C 478.176 434.268, 479.326 434.916, 479.920 434.549 C 480.514 434.182, 481 433.303, 481 432.596 C 481 431.889, 480.212 430.634, 479.250 429.807 C 478.288 428.980, 476.825 428.103, 476 427.857 C 475.175 427.612, 473.534 427.569, 472.354 427.761 M 102 439.148 C 102 449.333, 102.123 450, 104 450 C 105.842 450, 106 449.333, 106 441.535 C 106 433.988, 106.225 432.950, 108.078 431.958 C 109.221 431.346, 110.796 431.092, 111.578 431.392 C 112.662 431.808, 113 434.084, 113 440.969 C 113 449.333, 113.148 450, 115 450 C 116.853 450, 117 449.333, 117 440.934 C 117 435.948, 116.543 431.015, 115.985 429.971 C 115.137 428.388, 113.897 428.092, 108.485 428.185 L 102 428.295 102 439.148 M 120.216 438.738 C 120.462 448.037, 120.735 449.521, 122.250 449.811 C 123.831 450.114, 124 449.080, 124 439.073 C 124 428.605, 123.889 428, 121.966 428 C 120.030 428, 119.946 428.514, 120.216 438.738 M 126.455 430.750 C 126.824 432.262, 128.250 437.212, 129.624 441.750 C 131.810 448.972, 132.408 450, 134.424 450 C 136.481 450, 137.022 448.960, 139.492 440.250 C 141.013 434.887, 142.473 429.938, 142.736 429.250 C 143.022 428.503, 142.395 428, 141.178 428 C 139.554 428, 138.814 429.164, 137.520 433.750 C 136.628 436.913, 135.553 440.603, 135.132 441.951 C 134.486 444.017, 133.995 443.116, 131.997 436.201 C 130.089 429.600, 129.252 428, 127.705 428 C 126.112 428, 125.898 428.471, 126.455 430.750 M 146.073 430.635 C 144.614 432.489, 144 434.727, 144 438.185 C 144 440.888, 144.658 444.372, 145.463 445.928 C 146.268 447.485, 147.654 449.037, 148.545 449.379 C 149.435 449.720, 151.377 450, 152.859 450 C 154.342 450, 156.555 449.299, 157.777 448.443 C 159 447.587, 160 446.264, 160 445.502 C 160 444.741, 159.517 443.819, 158.926 443.454 C 158.335 443.089, 156.777 443.800, 155.463 445.035 C 153.186 447.174, 152.956 447.201, 150.537 445.616 C 149.142 444.702, 148 443.064, 148 441.977 C 148 440.227, 148.690 440, 154 440 C 160 440, 160 440, 160 436.635 C 160 434.745, 159.092 432.115, 157.927 430.635 C 156.329 428.602, 154.973 428, 152 428 C 149.027 428, 147.671 428.602, 146.073 430.635 M 163.216 438.738 C 163.462 448.037, 163.735 449.521, 165.250 449.811 C 166.763 450.101, 167 449.316, 167 444.024 C 167 440.557, 167.646 436.652, 168.489 435.021 C 169.308 433.437, 170.883 431.855, 171.989 431.503 C 173.095 431.152, 174 430.221, 174 429.433 C 174 428.645, 173.132 428, 172.071 428 C 171.011 428, 169.436 428.707, 168.571 429.571 C 167.143 431, 167 431, 167 429.571 C 167 428.658, 166.148 428, 164.966 428 C 163.030 428, 162.946 428.514, 163.216 438.738 M 178.054 429.435 C 177.399 430.224, 177.007 432.361, 177.182 434.185 C 177.456 437.038, 178.162 437.816, 182.250 439.769 C 185.419 441.283, 187 442.662, 187 443.912 C 187 444.943, 186.321 446.047, 185.491 446.365 C 184.662 446.683, 182.862 446.518, 181.491 445.997 C 180.121 445.476, 179 444.602, 179 444.056 C 179 443.510, 178.325 443.322, 177.500 443.638 C 176.675 443.955, 176 444.815, 176 445.550 C 176 446.285, 177 447.587, 178.223 448.443 C 179.445 449.299, 181.920 450, 183.723 450 C 185.667 450, 187.814 449.186, 189 448 C 190.100 446.900, 190.993 444.988, 190.985 443.750 C 190.976 442.512, 190.623 440.955, 190.200 440.289 C 189.776 439.623, 187.282 438.127, 184.656 436.966 C 181.313 435.487, 179.977 434.351, 180.201 433.177 C 180.377 432.255, 181.553 431.353, 182.815 431.173 C 184.077 430.994, 185.755 431.381, 186.542 432.035 C 187.330 432.689, 188.717 432.939, 189.623 432.591 C 191.133 432.012, 191.121 431.791, 189.481 429.979 C 188.235 428.602, 186.405 428, 183.467 428 C 181.019 428, 178.744 428.603, 178.054 429.435 M 194 439 C 194 449.333, 194.121 450, 196 450 C 197.879 450, 198 449.333, 198 439 C 198 428.667, 197.879 428, 196 428 C 194.121 428, 194 428.667, 194 439 M 264.825 429.038 C 263.904 429.576, 262.616 431.633, 261.964 433.610 C 261.278 435.687, 261.056 438.951, 261.439 441.341 C 261.802 443.616, 263.056 446.495, 264.224 447.739 C 265.570 449.171, 267.519 450, 269.539 450 C 271.294 450, 273.933 449.054, 275.403 447.898 C 277.482 446.263, 277.825 445.494, 276.946 444.435 C 276.009 443.306, 275.344 443.425, 273.029 445.137 C 270.750 446.821, 269.852 446.991, 268.120 446.064 C 266.954 445.440, 266 444.532, 266 444.047 C 266 443.561, 265.727 442.452, 265.393 441.582 C 264.877 440.236, 265.791 440, 271.524 440 C 278.262 440, 278.262 440, 277.677 436.394 C 277.355 434.411, 276.385 431.711, 275.523 430.394 C 274.324 428.565, 273.075 428.007, 270.227 428.030 C 268.177 428.047, 265.746 428.501, 264.825 429.038 M 313.216 438.738 C 313.462 448.037, 313.735 449.521, 315.250 449.811 C 316.763 450.101, 317 449.316, 317 444.024 C 317 440.557, 317.646 436.652, 318.489 435.021 C 319.308 433.437, 320.883 431.855, 321.989 431.503 C 323.095 431.152, 324 430.221, 324 429.433 C 324 428.645, 323.132 428, 322.071 428 C 321.011 428, 319.436 428.707, 318.571 429.571 C 317.143 431, 317 431, 317 429.571 C 317 428.658, 316.148 428, 314.966 428 C 313.030 428, 312.946 428.514, 313.216 438.738 M 327.073 430.635 C 325.614 432.489, 325 434.727, 325 438.185 C 325 440.888, 325.658 444.372, 326.463 445.928 C 327.268 447.485, 328.654 449.037, 329.545 449.379 C 330.435 449.720, 332.377 450, 333.859 450 C 335.342 450, 337.555 449.299, 338.777 448.443 C 340 447.587, 341 446.275, 341 445.527 C 341 444.779, 340.438 443.961, 339.750 443.711 C 339.063 443.460, 337.504 444.160, 336.287 445.267 C 334.193 447.171, 333.938 447.189, 331.537 445.616 C 330.142 444.702, 329 443.064, 329 441.977 C 329 440.227, 329.690 440, 335 440 C 341 440, 341 440, 341 436.635 C 341 434.745, 340.092 432.115, 338.927 430.635 C 337.329 428.602, 335.973 428, 333 428 C 330.027 428, 328.671 428.602, 327.073 430.635 M 357.479 430.024 C 356.096 431.551, 355.930 432.330, 356.800 433.200 C 357.670 434.070, 358.407 433.942, 359.805 432.676 C 360.824 431.754, 362.394 431, 363.294 431 C 364.193 431, 365.376 431.835, 365.922 432.855 C 366.780 434.457, 366.369 434.872, 362.900 435.912 C 360.692 436.573, 358.011 437.989, 356.943 439.057 C 355.874 440.126, 355 442.280, 355 443.845 C 355 445.410, 355.823 447.435, 356.829 448.345 C 357.835 449.255, 359.664 450, 360.894 450 C 362.125 450, 364.002 449.534, 365.066 448.965 C 366.399 448.251, 367 448.251, 367 448.965 C 367 449.534, 367.814 450, 368.808 450 C 370.452 450, 370.578 449.161, 370.196 440.750 C 369.904 434.321, 369.306 430.966, 368.233 429.750 C 367.288 428.678, 365.260 428, 363 428 C 360.566 428, 358.687 428.689, 357.479 430.024 M 394.218 438.886 C 394.462 448.045, 394.737 449.522, 396.250 449.811 C 397.802 450.109, 398 449.217, 398 441.934 C 398 435.284, 398.333 433.468, 399.750 432.392 C 400.712 431.661, 402.288 431.049, 403.250 431.032 C 404.796 431.004, 405 432.107, 405 440.500 C 405 449.333, 405.140 450, 407 450 C 408.853 450, 409 449.333, 409 440.934 C 409 435.948, 408.543 431.015, 407.985 429.971 C 407.136 428.386, 405.897 428.092, 400.452 428.185 L 393.935 428.296 394.218 438.886 M 413.930 431.250 C 412.361 433.748, 411.979 435.717, 412.277 439.758 C 412.556 443.529, 413.328 445.720, 415.007 447.508 C 416.527 449.126, 418.437 450, 420.452 450 C 422.159 450, 424.555 449.299, 425.777 448.443 C 427 447.587, 428 446.264, 428 445.502 C 428 444.741, 427.566 443.850, 427.036 443.523 C 426.507 443.195, 425.157 443.843, 424.036 444.964 C 422.916 446.084, 421.550 447, 421 447 C 420.450 447, 419.100 446.100, 418 445 C 416.900 443.900, 416 442.325, 416 441.500 C 416 440.333, 417.333 440, 422 440 C 428 440, 428 440, 428 436.223 C 428 434.145, 427.299 431.445, 426.443 430.223 C 425.230 428.491, 423.902 428, 420.429 428 C 416.484 428, 415.735 428.375, 413.930 431.250 M 487.073 430.635 C 485.507 432.625, 485 434.715, 485 439.180 C 485 444.122, 485.402 445.493, 487.455 447.545 C 489.002 449.093, 491.052 450, 493 450 C 494.966 450, 497.003 449.087, 498.599 447.492 C 499.979 446.112, 500.832 444.537, 500.495 443.992 C 500.158 443.446, 499.234 443, 498.441 443 C 497.648 443, 497 443.434, 497 443.965 C 497 444.495, 496.133 445.394, 495.072 445.961 C 494.012 446.529, 492.459 446.730, 491.621 446.408 C 490.783 446.086, 489.605 444.333, 489.004 442.512 C 488.403 440.691, 488.218 437.919, 488.594 436.351 C 488.969 434.783, 489.719 432.938, 490.260 432.250 C 490.802 431.563, 492.074 431, 493.087 431 C 494.101 431, 495.402 431.883, 495.980 432.963 C 496.598 434.116, 497.643 434.691, 498.515 434.356 C 499.332 434.042, 500 433.229, 500 432.548 C 500 431.867, 499.177 430.565, 498.171 429.655 C 497.165 428.745, 494.723 428, 492.744 428 C 490.047 428, 488.626 428.660, 487.073 430.635 M 504 439.073 C 504 449.080, 504.169 450.114, 505.750 449.811 C 507.265 449.521, 507.538 448.037, 507.784 438.738 C 508.054 428.514, 507.970 428, 506.034 428 C 504.111 428, 504 428.605, 504 439.073 M 533.825 429.038 C 532.904 429.576, 531.616 431.633, 530.964 433.610 C 530.278 435.687, 530.056 438.951, 530.439 441.341 C 530.802 443.616, 532.056 446.495, 533.224 447.739 C 534.590 449.193, 536.516 450, 538.619 450 C 540.680 450, 542.926 449.083, 544.694 447.518 C 546.965 445.509, 547.231 444.859, 546.087 444.108 C 545.120 443.473, 543.819 443.814, 541.957 445.190 C 539.743 446.826, 538.847 446.989, 537.120 446.064 C 535.954 445.440, 535 444.532, 535 444.047 C 535 443.561, 534.727 442.452, 534.393 441.582 C 533.877 440.236, 534.791 440, 540.524 440 C 547.262 440, 547.262 440, 546.677 436.394 C 546.355 434.411, 545.385 431.711, 544.523 430.394 C 543.324 428.565, 542.075 428.007, 539.227 428.030 C 537.177 428.047, 534.746 428.501, 533.825 429.038 M 550 439.177 C 550 449.085, 550.169 450.114, 551.750 449.812 C 553.211 449.534, 553.549 448.165, 553.796 441.537 C 553.958 437.169, 554.576 433.011, 555.168 432.297 C 555.760 431.584, 557.042 431, 558.015 431 C 558.989 431, 560.059 431.712, 560.393 432.582 C 560.727 433.452, 561 437.727, 561 442.082 C 561 448.454, 561.293 450, 562.500 450 C 563.732 450, 564 448.236, 564 440.122 C 564 433.200, 563.608 429.920, 562.690 429.158 C 561.970 428.560, 558.820 428.101, 555.690 428.139 L 550 428.207 550 439.177 M 580.865 430.135 C 578.937 432.063, 578.890 432.359, 580.379 433.192 C 581.530 433.836, 582.514 433.628, 583.639 432.504 C 584.524 431.618, 586.201 431.030, 587.364 431.197 C 588.528 431.364, 589.622 432.246, 589.795 433.158 C 590.014 434.303, 589.180 435.021, 587.103 435.477 C 585.448 435.841, 582.948 437.040, 581.547 438.142 C 579.745 439.559, 579 441.102, 579 443.418 C 579 445.318, 579.767 447.384, 580.829 448.345 C 581.835 449.255, 583.833 450, 585.270 450 C 586.706 450, 588.174 449.528, 588.530 448.951 C 588.975 448.232, 589.610 448.261, 590.555 449.046 C 591.313 449.675, 592.464 450.012, 593.114 449.795 C 593.927 449.524, 594.228 446.613, 594.080 440.455 C 593.923 433.920, 593.436 431.035, 592.277 429.754 C 591.289 428.661, 589.240 428, 586.845 428 C 584.252 428, 582.305 428.695, 580.865 430.135 M 607.073 430.635 C 605.507 432.625, 605 434.715, 605 439.180 C 605 444.122, 605.402 445.493, 607.455 447.545 C 609.086 449.177, 611.035 450, 613.266 450 C 615.262 450, 617.510 449.173, 618.811 447.961 C 620.015 446.840, 621 445.527, 621 445.044 C 621 444.562, 620.438 443.971, 619.750 443.733 C 619.063 443.494, 617.427 444.131, 616.115 445.149 C 614.803 446.167, 613.373 447, 612.937 447 C 612.500 447, 611.436 446.293, 610.571 445.429 C 609.707 444.564, 609 442.989, 609 441.929 C 609 440.233, 609.742 440, 615.132 440 C 621.263 440, 621.263 440, 620.716 435.922 C 620.416 433.680, 619.387 430.980, 618.430 429.922 C 617.299 428.673, 615.369 428, 612.918 428 C 610.033 428, 608.657 428.620, 607.073 430.635 M 149.035 432.934 C 148.466 433.998, 148 435.123, 148 435.434 C 148 435.745, 149.800 436, 152 436 C 154.200 436, 156 435.745, 156 435.434 C 156 435.123, 155.534 433.998, 154.965 432.934 C 154.395 431.870, 153.061 431, 152 431 C 150.939 431, 149.605 431.870, 149.035 432.934 M 217.567 433.195 C 215.967 435.467, 215.995 435.504, 219.572 435.816 C 221.568 435.990, 223.477 435.856, 223.815 435.518 C 224.153 435.181, 223.947 434.138, 223.357 433.202 C 222.768 432.266, 221.589 431.363, 220.738 431.195 C 219.887 431.027, 218.460 431.927, 217.567 433.195 M 247.035 432.934 C 246.466 433.998, 246 436.898, 246 439.378 C 246 442.886, 246.487 444.228, 248.194 445.423 C 250.176 446.812, 250.561 446.802, 252.194 445.325 C 253.490 444.152, 254 442.236, 254 438.545 C 254 435.715, 253.460 432.860, 252.800 432.200 C 252.140 431.540, 250.806 431, 249.835 431 C 248.865 431, 247.605 431.870, 247.035 432.934 M 267.200 432.200 C 266.540 432.860, 266 433.985, 266 434.700 C 266 435.519, 267.295 436, 269.500 436 C 271.705 436, 273 435.519, 273 434.700 C 273 433.985, 272.460 432.860, 271.800 432.200 C 271.140 431.540, 270.105 431, 269.500 431 C 268.895 431, 267.860 431.540, 267.200 432.200 M 330.035 432.934 C 329.466 433.998, 329 435.123, 329 435.434 C 329 435.745, 330.800 436, 333 436 C 335.200 436, 337 435.745, 337 435.434 C 337 435.123, 336.534 433.998, 335.965 432.934 C 335.395 431.870, 334.061 431, 333 431 C 331.939 431, 330.605 431.870, 330.035 432.934 M 379.011 432.487 C 378.303 433.340, 378.046 435.046, 378.407 436.487 C 378.903 438.463, 379.671 439, 382 439 C 384.329 439, 385.097 438.463, 385.593 436.487 C 385.954 435.046, 385.697 433.340, 384.989 432.487 C 384.310 431.669, 382.965 431, 382 431 C 381.035 431, 379.690 431.669, 379.011 432.487 M 417.567 433.195 C 415.967 435.467, 415.995 435.504, 419.572 435.816 C 421.568 435.990, 423.477 435.856, 423.815 435.518 C 424.153 435.181, 423.947 434.138, 423.357 433.202 C 422.768 432.266, 421.589 431.363, 420.738 431.195 C 419.887 431.027, 418.460 431.927, 417.567 433.195 M 516.035 432.934 C 515.466 433.998, 515 436.898, 515 439.378 C 515 442.886, 515.487 444.228, 517.194 445.423 C 519.176 446.812, 519.561 446.802, 521.194 445.325 C 522.490 444.152, 523 442.236, 523 438.545 C 523 435.715, 522.460 432.860, 521.800 432.200 C 521.140 431.540, 519.806 431, 518.835 431 C 517.865 431, 516.605 431.870, 516.035 432.934 M 536.200 432.200 C 535.540 432.860, 535 433.985, 535 434.700 C 535 435.519, 536.295 436, 538.500 436 C 540.705 436, 542 435.519, 542 434.700 C 542 433.985, 541.460 432.860, 540.800 432.200 C 540.140 431.540, 539.105 431, 538.500 431 C 537.895 431, 536.860 431.540, 536.200 432.200 M 610.200 432.200 C 609.540 432.860, 609 433.985, 609 434.700 C 609 435.550, 610.385 436, 613 436 C 615.200 436, 617 435.745, 617 435.434 C 617 435.123, 616.534 433.998, 615.965 432.934 C 615.395 431.870, 614.135 431, 613.165 431 C 612.194 431, 610.860 431.540, 610.200 432.200 M 295 441 C 295 446, 295 446, 298.566 446 C 300.527 446, 303.002 445.534, 304.066 444.965 C 305.302 444.303, 306 442.873, 306 441 C 306 439.127, 305.302 437.697, 304.066 437.035 C 303.002 436.466, 300.527 436, 298.566 436 C 295 436, 295 436, 295 441 M 362.750 439.708 C 359.881 440.860, 359 441.776, 359 443.607 C 359 445.451, 359.538 446, 361.345 446 C 362.635 446, 364.471 445.137, 365.425 444.082 C 366.380 443.028, 367.012 441.273, 366.830 440.183 C 366.516 438.300, 366.314 438.276, 362.750 439.708 M 587 439.164 C 585.625 439.666, 583.968 440.778, 583.319 441.635 C 582.669 442.493, 582.380 443.826, 582.676 444.597 C 582.972 445.369, 584.236 446, 585.485 446 C 586.733 446, 588.293 445.352, 588.950 444.560 C 589.607 443.769, 589.999 442.025, 589.822 440.686 C 589.539 438.546, 589.198 438.362, 587 439.164 M 378.052 449.437 C 377.379 450.248, 377.118 451.382, 377.473 451.956 C 377.828 452.530, 379.836 453, 381.937 453 C 384.037 453, 386.282 452.365, 386.926 451.589 C 387.570 450.813, 387.738 449.972, 387.299 449.720 C 386.859 449.469, 384.875 448.970, 382.888 448.612 C 380.298 448.145, 378.931 448.379, 378.052 449.437" stroke="none" fill="currentColor" fill-rule="evenodd"/></svg>